<svg width="71" height="71" viewBox="0 0 71 71" fill="none"
  xmlns="http://www.w3.org/2000/svg">
  <g filter="url(#filter0_d_114_111)">
    <circle cx="35.5" cy="32.5" r="32.5" fill="white"/>
    <circle cx="35.5" cy="32.5" r="32.165" stroke="black" stroke-width="0.67"/>
  </g>
  <path d="M40.0198 31.3604L34.3917 27.6071C34.1264 27.4301 33.8179 27.3285 33.4992 27.3132C33.1806 27.2978 32.8638 27.3694 32.5827 27.5202C32.3015 27.671 32.0667 27.8953 31.9031 28.1692C31.7396 28.4431 31.6536 28.7563 31.6543 29.0753V36.58C31.6543 36.8987 31.7407 37.2114 31.9045 37.4849C32.0683 37.7583 32.3032 37.9821 32.5842 38.1325C32.8652 38.2828 33.1818 38.3541 33.5001 38.3386C33.8185 38.3231 34.1266 38.2215 34.3917 38.0447L40.0198 34.2914C40.2609 34.1307 40.4586 33.9129 40.5953 33.6574C40.732 33.4019 40.8036 33.1166 40.8036 32.8268C40.8036 32.537 40.732 32.2517 40.5953 31.9962C40.4586 31.7407 40.2609 31.5229 40.0198 31.3621V31.3604Z" stroke="black" stroke-width="3.5175" stroke-linecap="round" stroke-linejoin="round"/>
  <path d="M51.0186 32.825C51.0186 34.9056 50.6087 36.9659 49.8125 38.8881C49.0163 40.8104 47.8493 42.557 46.378 44.0282C44.9068 45.4995 43.1602 46.6665 41.2379 47.4627C39.3157 48.2589 37.2554 48.6688 35.1748 48.6688C33.0942 48.6688 31.0339 48.2589 29.1117 47.4627C27.1894 46.6665 25.4428 45.4995 23.9716 44.0282C22.5004 42.557 21.3333 40.8104 20.5371 38.8881C19.7409 36.9659 19.3311 34.9056 19.3311 32.825C19.3311 28.623 21.0003 24.5931 23.9716 21.6218C26.9429 18.6505 30.9728 16.9813 35.1748 16.9813C39.3768 16.9813 43.4067 18.6505 46.378 21.6218C49.3493 24.5931 51.0186 28.623 51.0186 32.825Z" stroke="black" stroke-width="3.5175" stroke-linecap="round" stroke-linejoin="round"/>
  <defs>
    <filter id="filter0_d_114_111" x="0.32" y="0" width="70.36" height="70.36" filterUnits="userSpaceOnUse" color-interpolation-filters="sRGB">
      <feFlood flood-opacity="0" result="BackgroundImageFix"/>
      <feColorMatrix in="SourceAlpha" type="matrix" values="0 0 0 0 0 0 0 0 0 0 0 0 0 0 0 0 0 0 127 0" result="hardAlpha"/>
      <feOffset dy="2.68"/>
      <feGaussianBlur stdDeviation="1.34"/>
      <feComposite in2="hardAlpha" operator="out"/>
      <feColorMatrix type="matrix" values="0 0 0 0 0 0 0 0 0 0 0 0 0 0 0 0 0 0 0.25 0"/>
      <feBlend mode="normal" in2="BackgroundImageFix" result="effect1_dropShadow_114_111"/>
      <feBlend mode="normal" in="SourceGraphic" in2="effect1_dropShadow_114_111" result="shape"/>
    </filter>
  </defs>
</svg>
